<svg xmlns="http://www.w3.org/2000/svg" width="37" height="36"><g fill="#7358FF" fill-rule="evenodd" transform="translate(.424)"><rect width="12" height="4" x="1" y="17.046" rx="2"/><path d="m10.25 5.985 5.195 6.414a1.806 1.806 0 0 1-2.807 2.273L7.444 8.257a1.806 1.806 0 1 1 2.806-2.272ZM23.515 4.572l-1.856 8.042a1.806 1.806 0 0 1-3.519-.812l1.857-8.043a1.806 1.806 0 0 1 3.518.813ZM32.854 14.001l-7.42 3.619a1.806 1.806 0 0 1-1.582-3.246l7.418-3.618A1.806 1.806 0 0 1 32.854 14ZM7.444 29.743l5.194-6.415a1.806 1.806 0 0 1 2.807 2.273l-5.195 6.414a1.806 1.806 0 0 1-2.806-2.272Z"/></g></svg>