<svg xmlns="http://www.w3.org/2000/svg" width="95" height="100"><g fill="none" fill-rule="evenodd"><path fill="#F4500B" d="M61.148 85.86c2.27-1.157 7.48-3.263 9.245-5.005 9.857-9.724 9.65-27.692 1.453-43.777-7.875-15.457-21.658-26.132-34.915-24.805-3.011.301-9.702 4.253-11.414 5.152-14.94 7.611-17.433 28.25-7.769 47.217 9.665 18.968 28.46 28.83 43.4 21.218Z"/><path fill="#FF8F07" d="M69.629 81.783c14.807-7.545 16.99-27.826 7.398-46.65-9.591-18.823-28.31-29.601-43.118-22.057-14.807 7.545-15.867 28.402-6.276 47.225 9.591 18.823 27.189 29.026 41.996 21.482Z"/><path fill="#FFF" d="M43.296 23.197c5.254 12.45 17.964 19.312 28.387 15.325-10.423 3.987-14.614 17.313-9.36 29.764C57.07 55.835 44.36 48.974 33.938 52.961c10.423-3.987 14.613-17.313 9.359-29.764Z"/></g></svg>