<svg xmlns="http://www.w3.org/2000/svg" width="104" height="28"><g fill="none" fill-rule="evenodd"><path fill="#fff" d="M22 12H5.895C2.639 12 0 9.494 0 6.402v-.804C0 2.506 2.64 0 5.895 0h10.21C19.361 0 22 2.506 22 5.598V12Z"/><path fill="#fff" d="M18.789 28H6.21C2.781 28 0 25.253 0 21.865V13c1.31 1.967 3.52 2.75 5.34 2.708h13.449c3.43 0 6.211 2.747 6.211 6.135v.022C25 25.253 22.219 28 18.789 28"/><path fill="#FFF" d="M51.512 5v6.635c1.098-1.034 2.536-1.557 4.29-1.557 1.696 0 3.17.605 4.377 1.799C61.388 13.071 62 14.636 62 16.527c0 1.893-.612 3.459-1.82 4.657C58.964 22.389 57.49 23 55.8 23c-1.748 0-3.187-.53-4.289-1.576l-.007.13a1.269 1.269 0 0 1-1.264 1.135H49V6.85C49 5.83 49.833 5 50.86 5h.652Zm4.011 7.336c-1.057 0-1.973.384-2.8 1.174-.815.778-1.211 1.765-1.211 3.018 0 1.238.396 2.221 1.212 3.008.811.78 1.727 1.16 2.8 1.16 1.154 0 2.087-.37 2.852-1.133.78-.779 1.158-1.772 1.158-3.035 0-1.264-.379-2.257-1.159-3.036-.78-.778-1.712-1.156-2.852-1.156ZM72.275 12.452c.815.783 1.21 1.776 1.21 3.036 0 1.246-.396 2.236-1.211 3.026-.81.787-1.726 1.169-2.797 1.169-1.155 0-2.087-.373-2.85-1.14-.78-.784-1.16-1.783-1.16-3.055 0-1.271.38-2.27 1.159-3.053.78-.783 1.712-1.164 2.85-1.164 1.057 0 1.973.386 2.8 1.18Zm1.21-1.887C72.389 9.525 70.952 9 69.2 9c-1.697 0-3.17.609-4.378 1.81C63.613 12.01 63 13.585 63 15.488c0 1.904.613 3.48 1.82 4.685C66.036 21.385 67.51 22 69.2 22c1.747 0 3.185-.533 4.287-1.585v1.272h.652A1.863 1.863 0 0 0 76 19.824V9.278h-1.227c-.71 0-1.287.576-1.287 1.287ZM84.783 10c-1.732 0-3.136.507-4.19 1.508v-1.245h-.672c-1.061 0-1.921.789-1.921 1.762V22h.672c1.062 0 1.921-.788 1.921-1.762v-3.875c0-1.316.347-2.342 1.032-3.047.69-.712 1.602-1.059 2.787-1.059.896 0 1.601.275 2.155.841.557.568.84 1.335.84 2.28V22h.672c1.06 0 1.921-.788 1.921-1.762v-5.191c0-1.484-.48-2.708-1.429-3.637-.953-.936-2.228-1.41-3.788-1.41M104 5v15.838a1.857 1.857 0 0 1-1.862 1.85h-.652v-1.264C100.382 22.47 98.942 23 97.193 23c-1.681 0-3.149-.611-4.363-1.816-1.214-1.206-1.83-2.772-1.83-4.656s.616-3.45 1.83-4.65c1.207-1.194 2.674-1.8 4.363-1.8 1.754 0 3.194.523 4.293 1.557V6.851c0-1.022.834-1.851 1.862-1.851H104Zm-6.529 7.336c-1.149 0-2.086.378-2.866 1.156-.766.764-1.137 1.756-1.137 3.036 0 1.271.375 2.264 1.148 3.035.765.763 1.698 1.134 2.855 1.134 1.08 0 2.001-.38 2.813-1.161.809-.779 1.202-1.763 1.202-3.008 0-1.254-.393-2.241-1.202-3.02-.826-.788-1.747-1.172-2.813-1.172ZM40.152 5h-2.304L30 22h1.674c.78 0 1.485-.448 1.798-1.141l1.354-3 1.111-2.443 3.08-6.772 3.06 6.772h-3.782c-.827 0-1.566.504-1.846 1.26l-.441 1.184h7.166l1.365 3.003A1.967 1.967 0 0 0 46.336 22H48L40.152 5Z"/></g></svg>