<?xml version="1.0" encoding="UTF-8"?>
<svg width="101px" height="114px" viewBox="0 0 101 114" version="1.1" xmlns="http://www.w3.org/2000/svg" xmlns:xlink="http://www.w3.org/1999/xlink">
    <title>编组 15</title>
    <g id="页面-1" stroke="none" stroke-width="1" fill="none" fill-rule="evenodd">
        <g id="桌面端" transform="translate(0.000000, -2557.000000)">
            <g id="编组-15" transform="translate(0.000000, 2557.000000)">
                <path d="M88,51 L24.3109635,51 C11.4366337,51 1,40.3476994 1,27.2077818 L1,23.7918511 C1,10.6519336 11.4366337,0 24.3109635,0 L64.6886769,0 C77.5630067,0 88,10.6519336 88,23.7918511 L88,51 Z" id="Fill-13" fill="#09E083"></path>
                <path d="M75.9069537,114 L25.0930463,114 C11.2344448,114 0,102.64679 0,88.6416826 L0,52 C5.29065022,60.1312195 14.223711,63.363083 21.5707709,63.1930427 L75.9069537,63.1930427 C89.7655552,63.1930427 101,74.5462524 101,88.5513601 L101,88.6416826 C101,102.64679 89.7655552,114 75.9069537,114" id="Fill-15" fill="#7358FF"></path>
            </g>
        </g>
    </g>
</svg>