<svg xmlns="http://www.w3.org/2000/svg" xmlns:xlink="http://www.w3.org/1999/xlink" width="273" height="318"><defs><path id="a" d="M203.847 318H67.389C30.169 318 0 285.46 0 245.316V140.294c14.207 23.305 38.197 32.572 57.927 32.08h145.92c37.214 0 67.388 32.541 67.388 72.685v.257c0 40.143-30.174 72.684-67.388 72.684"/><path id="c" d="M137.118 4.922h134.46c12.29 0 18.713 9.964 14.344 22.255L189.77 296.934c-4.37 12.291-17.875 22.255-30.166 22.255l-134.46-4c-12.291 0-18.713-9.964-14.345-22.255l96.154-265.757c4.369-12.291 17.875-22.255 30.166-22.255Z"/><path id="e" d="M64.059 0h207v131h-271V64c0-35.346 28.654-64 64-64Z"/></defs><g fill="none" fill-rule="evenodd" transform="translate(.941)"><path fill="#09E083" d="M243.176 130.941H65.158C29.173 130.941 0 103.591 0 69.856v-8.77C0 27.35 29.173 0 65.158 0h112.86c35.985 0 65.158 27.35 65.158 61.085v69.856Z"/><mask id="b" fill="#fff"><use xlink:href="#a"/></mask><use xlink:href="#a" fill="#7358FF"/><g mask="url(#b)"><g transform="translate(-34.898 15)"><path fill="#E4E1EE" d="M137.416.463h138.709c15.717 0 35.975 25.127 26.11 48.905L207.03 325.94c-4.711 13.544-19.276 22.523-32.53 22.523l-145-4c-13.256 0-34.4-12.156-28.478-39.286L113.555 39.84C118.265 26.296 124.16.463 137.416.463Z"/><path fill="#CDC9DC" d="M134.085 0h141.38c13.255 0 21.614 12.718 15.65 28.885L195.032 304c-4.711 13.255-19.276 24-32.53 24l-140.796-4C8.45 324-2.68 313.255 2.031 300l99.524-276c4.71-13.255 19.275-24 32.53-24Z"/><mask id="d" fill="#fff"><use xlink:href="#c"/></mask><use xlink:href="#c" fill="#FFF"/><path stroke="#EDEBF3" stroke-linecap="round" stroke-linejoin="round" stroke-width="6" d="m41.456 223 34.5-22.806 16.832 4.53 21.727-19.274v54.977l47.779-35.703 8.221 23.109L244 167.27" mask="url(#d)"/><path fill="#CDC9DC" d="m250.072 2-4.83 7.8c-1.779 2.872-6.957 5.2-11.567 5.2h-77.203c-4.61 0-6.904-2.328-5.125-5.2l4.83-7.8h93.895Z" mask="url(#d)"/></g></g><mask id="f" fill="#fff"><use xlink:href="#e" transform="matrix(1 0 0 -1 0 131)"/></mask><g mask="url(#f)"><g transform="translate(-34.898 15)"><path fill="#E4E1EE" d="M137.416.463h138.709c15.717 0 35.975 25.127 26.11 48.905L207.03 325.94c-4.711 13.544-19.276 22.523-32.53 22.523l-145-4c-13.256 0-34.4-12.156-28.478-39.286L113.555 39.84C118.265 26.296 124.16.463 137.416.463Z"/><path fill="#CDC9DC" d="M134.085 0h141.38c13.255 0 21.614 12.718 15.65 28.885L195.032 304c-4.711 13.255-19.276 24-32.53 24l-140.796-4C8.45 324-2.68 313.255 2.031 300l99.524-276c4.71-13.255 19.275-24 32.53-24Z"/><path fill="#FFF" d="M137.118 4.922h134.46c12.29 0 18.713 9.964 14.344 22.255L189.77 296.934c-4.37 12.291-17.875 22.255-30.166 22.255l-134.46-4c-12.291 0-18.713-9.964-14.345-22.255l96.154-265.757c4.369-12.291 17.875-22.255 30.166-22.255Z"/><text font-family=".AppleSystemUIFont" font-size="16">
                                <tspan x="15.956" y="146" fill="#FFF">Assets</tspan>
                            </text><path fill="#CDC9DC" d="m250.072 2-4.83 7.8c-1.779 2.872-6.957 5.2-11.567 5.2h-77.203c-4.61 0-6.904-2.328-5.125-5.2l4.83-7.8h93.895Z"/><rect width="107" height="7.525" x="140" y="33" fill="#EDEBF3" rx="3.762"/><rect width="96" height="7.525" x="111.5" y="56.738" fill="#EDEBF3" rx="3.762"/><rect width="78" height="7.525" x="135" y="82.475" fill="#EDEBF3" rx="3.762"/></g></g></g></svg>